<?xml version="1.0" encoding="utf-8"?>
<svg version="1.1" xmlns:xlink="http://www.w3.org/1999/xlink" width="48px" height="61px" xmlns="http://www.w3.org/2000/svg">
  <g transform="matrix(1 0 0 1 -123 -3125 )">
    <path d="M 24.2501052631579 0.0254166666666667  L 24 0  L 0 2.52641666666667  L 0 46.6700833333333  L 24 61  L 48 46.6700833333333  L 48 2.52641666666667  L 24.2501052631579 0.0254166666666667  Z M 44 44.8756666666667  L 44.8067368421053 44.8782083333333  L 24 57.332375  L 4 44.8782083333333  L 4 26.7840833333333  L 23.9090526315789 39.1899583333333  L 23.9444210526316 41.4393333333333  L 9.73136842105263 32.9272916666667  L 9.71115789473684 35.113125  L 23.9797894736842 43.7395416666667  L 24.0176842105263 46.047375  L 9.75157894736842 37.507375  L 9.73136842105263 39.6932083333333  L 24 48.3170833333333  L 38.4075789473684 39.6449166666667  L 38.4075789473684 37.454  L 38.3873684210526 37.4641666666667  L 38.3873684210526 30.3347916666667  L 44 26.4790833333333  L 44 44.8756666666667  Z M 23.8837894736842 11.8746666666667  L 44.7915789473684 24.133125  L 39.0972631578947 27.5084583333333  L 36.4698947368421 29.0665  L 23.9393684210526 21.5660416666667  L 23.9166315789474 23.7467916666667  L 34.6282105263158 30.1543333333333  L 34.5347368421053 30.2127916666667  L 34.3023157894737 30.3500416666667  L 32.7814736842105 31.2523333333333  L 23.9393684210526 25.9580416666667  L 23.9166315789474 28.1413333333333  L 30.8968421052632 32.3172916666667  L 29.2496842105263 33.4254583333333  L 29.2117894736842 33.450875  L 23.9368421052632 30.324625  L 23.9166315789474 32.505375  L 27.3776842105263 34.5565  L 23.8534736842105 36.683875  L 3.23873684210527 24.3567916666667  L 23.8837894736842 11.872125  L 23.8837894736842 11.8746666666667  Z M 44 21.9345833333333  L 44.8067368421053 21.937125  L 23.8888421052632 9.52870833333333  L 23.8837894736842 9.52870833333333  L 4 21.9244166666667  L 4 5.36291666666667  L 24 3.16691666666667  L 44 5.36291666666667  L 44 21.9345833333333  Z " fill-rule="nonzero" fill="#333333" stroke="none" transform="matrix(1 0 0 1 123 3125 )" />
  </g>
</svg>