<?xml version="1.0" encoding="utf-8"?>
<svg version="1.1" xmlns:xlink="http://www.w3.org/1999/xlink" width="57px" height="57px" xmlns="http://www.w3.org/2000/svg">
  <g transform="matrix(1 0 0 1 -302 -3300 )">
    <path d="M 34.95703125 34.95703125  C 37.9600360576923 31.9540264423077  39.4615384615385 28.3401442307692  39.4615384615385 24.1153846153846  C 39.4615384615385 19.890625  37.9600360576923 16.2767427884615  34.95703125 13.2737379807692  C 31.9540264423077 10.2707331730769  28.3401442307692 8.76923076923077  24.1153846153846 8.76923076923077  C 19.890625 8.76923076923077  16.2767427884615 10.2707331730769  13.2737379807692 13.2737379807692  C 10.2707331730769 16.2767427884615  8.76923076923077 19.890625  8.76923076923077 24.1153846153846  C 8.76923076923077 28.3401442307692  10.2707331730769 31.9540264423077  13.2737379807692 34.95703125  C 16.2767427884615 37.9600360576923  19.890625 39.4615384615385  24.1153846153846 39.4615384615385  C 28.3401442307692 39.4615384615385  31.9540264423077 37.9600360576923  34.95703125 34.95703125  Z M 55.7325721153846 49.5324519230769  C 56.5775240384615 50.3774038461539  57 51.4050480769231  57 52.6153846153846  C 57 53.8028846153846  56.5661057692308 54.8305288461539  55.6983173076923 55.6983173076923  C 54.8305288461539 56.5661057692308  53.8028846153846 57  52.6153846153846 57  C 51.3822115384615 57  50.3545673076923 56.5661057692308  49.5324519230769 55.6983173076923  L 37.7830528846154 43.9831730769231  C 33.6953125 46.8149038461539  29.1394230769231 48.2307692307692  24.1153846153846 48.2307692307692  C 20.8497596153846 48.2307692307692  17.7268629807692 47.5970552884615  14.7466947115385 46.3296274038462  C 11.7665264423077 45.0621995192308  9.19741586538462 43.3494591346154  7.03936298076923 41.19140625  C 4.88131009615385 39.0333533653846  3.16856971153846 36.4642427884615  1.90114182692308 33.4840745192308  C 0.633713942307692 30.50390625  0 27.3810096153846  0 24.1153846153846  C 0 20.8497596153846  0.633713942307692 17.7268629807692  1.90114182692308 14.7466947115385  C 3.16856971153846 11.7665264423077  4.88131009615385 9.19741586538462  7.03936298076923 7.03936298076923  C 9.19741586538462 4.88131009615385  11.7665264423077 3.16856971153846  14.7466947115385 1.90114182692308  C 17.7268629807692 0.633713942307691  20.8497596153846 0  24.1153846153846 0  C 27.3810096153846 0  30.50390625 0.633713942307691  33.4840745192308 1.90114182692308  C 36.4642427884615 3.16856971153846  39.0333533653846 4.88131009615385  41.19140625 7.03936298076923  C 43.3494591346154 9.19741586538462  45.0621995192308 11.7665264423077  46.3296274038462 14.7466947115385  C 47.5970552884615 17.7268629807692  48.2307692307692 20.8497596153846  48.2307692307692 24.1153846153846  C 48.2307692307692 29.1394230769231  46.8149038461539 33.6953125  43.9831730769231 37.7830528846154  L 55.7325721153846 49.5324519230769  Z " fill-rule="nonzero" fill="#333333" stroke="none" transform="matrix(1 0 0 1 302 3300 )" />
  </g>
</svg>