<?xml version="1.0" encoding="utf-8"?>
<svg version="1.1" xmlns:xlink="http://www.w3.org/1999/xlink" width="74px" height="74px" xmlns="http://www.w3.org/2000/svg">
  <g transform="matrix(1 0 0 1 -685 -4053 )">
    <path d="M 65.0060267857143 61.165625  C 65.0994116825265 61.0660560029835  65.1902883856069 60.9641639419539  65.2785714285714 60.8600446428571  C 65.2950892857143 60.8352678571428  65.3198660714286 60.8104910714286  65.3363839285714 60.7857142857143  C 70.7459821428571 54.3520089285714  74 46.0600446428571  74 37  C 74 27.9399553571428  70.7459821428571 19.6479910714286  65.3446428571429 13.2142857142857  C 65.328125 13.1895089285714  65.3033482142857 13.1729910714286  65.2868303571429 13.1482142857143  C 65.1959821428571 13.0408482142857  65.1133928571429 12.9417410714286  65.0225446428571 12.8426339285714  C 64.9895089285714 12.8013392857143  64.9564732142857 12.7683035714286  64.9234375 12.7270089285714  L 64.5848214285714 12.3388392857143  L 64.5765625 12.3305803571429  C 64.4526785714286 12.1901785714286  64.3205357142857 12.0497767857143  64.1966517857143 11.909375  L 64.1883928571428 11.9011160714286  C 63.9241071428571 11.6203125  63.6598214285714 11.3395089285714  63.3872767857143 11.0669642857143  L 63.3790178571428 11.0587053571429  L 62.9825892857143 10.6622767857143  L 62.9578125 10.6375  C 62.8339285714286 10.5136160714286  62.7100446428571 10.3979910714286  62.5861607142857 10.2823660714286  C 62.5448660714286 10.2410714285714  62.5035714285714 10.1997767857143  62.4540178571428 10.1584821428571  C 62.3714285714286 10.0758928571429  62.2888392857143 10.0015625  62.20625 9.92723214285714  C 62.1814732142857 9.90245535714285  62.1484375 9.87767857142857  62.1236607142857 9.84464285714285  C 55.5330357142857 3.73303571428571  46.7042410714286 0  37 0  C 27.2957589285714 0  18.4669642857143 3.73303571428571  11.8680803571429 9.84464285714285  C 11.8433035714286 9.86941964285714  11.8102678571429 9.89419642857142  11.7854910714286 9.92723214285714  C 11.7029017857143 10.0015625  11.6203125 10.0841517857143  11.5377232142857 10.1667410714286  C 11.4964285714286 10.2080357142857  11.4551339285714 10.2493303571429  11.4055803571429 10.290625  C 11.2816964285714 10.40625  11.1578125 10.5301339285714  11.0339285714286 10.6457589285714  L 11.0091517857143 10.6705357142857  L 10.6127232142857 11.0669642857143  L 10.6044642857143 11.0752232142857  C 10.3319196428571 11.3477678571429  10.0676339285714 11.6285714285714  9.80334821428571 11.909375  L 9.79508928571429 11.9176339285714  C 9.66294642857143 12.0580357142857  9.5390625 12.1984375  9.41517857142857 12.3388392857143  L 9.40691964285714 12.3470982142857  C 9.29129464285714 12.4709821428571  9.17566964285714 12.603125  9.06830357142857 12.7352678571429  C 9.03526785714286 12.7765625  9.00223214285714 12.8095982142857  8.96919642857143 12.8508928571429  C 8.87834821428572 12.95  8.79575892857143 13.0573660714286  8.70491071428572 13.1564732142857  C 8.68839285714286 13.18125  8.66361607142857 13.1977678571429  8.64709821428572 13.2225446428571  C 3.25401785714286 19.6479910714286  0 27.9399553571429  0 37  C 0 46.0600446428571  3.25401785714286 54.3520089285714  8.65535714285714 60.7857142857143  C 8.671875 60.8104910714286  8.69665178571429 60.8352678571428  8.71316964285714 60.8600446428571  L 8.96919642857143 61.165625  C 9.00223214285714 61.2069196428571  9.03526785714286 61.2399553571428  9.06830357142857 61.28125  L 9.40691964285714 61.6694196428571  C 9.40691964285714 61.6776785714286  9.41517857142857 61.6776785714286  9.41517857142857 61.6859375  C 9.5390625 61.8263392857143  9.66294642857143 61.9667410714286  9.79508928571428 62.0988839285714  L 9.80334821428571 62.1071428571428  C 10.0676339285714 62.3879464285714  10.3319196428571 62.66875  10.5962053571429 62.9412946428571  L 10.6044642857143 62.9495535714286  C 10.7366071428571 63.0816964285714  10.8604910714286 63.2138392857143  10.9926339285714 63.3377232142857  L 11.0174107142857 63.3625  C 11.2899553571429 63.6350446428571  11.5707589285714 63.8993303571429  11.8515625 64.1553571428571  C 18.4669642857143 70.2669642857143  27.2957589285714 74  37 74  C 46.7042410714286 74  55.5330357142857 70.2669642857143  62.1319196428571 64.1553571428571  C 62.4132872898751 63.8974679291102  62.6886584024145 63.6331116610724  62.9578125 63.3625  L 62.9825892857143 63.3377232142857  C 63.1147321428571 63.2055803571429  63.246875 63.0816964285714  63.3707589285714 62.9495535714286  L 63.3790178571428 62.9412946428571  C 63.6515625 62.66875  63.9158482142857 62.3879464285714  64.171875 62.1071428571428  L 64.1801339285714 62.0988839285714  C 64.3040178571429 61.9584821428571  64.4361607142857 61.8263392857143  64.5600446428572 61.6859375  C 64.5600446428572 61.6776785714286  64.5683035714286 61.6776785714286  64.5683035714286 61.6694196428571  C 64.6839285714286 61.5455357142857  64.7995535714286 61.4133928571428  64.9069196428571 61.28125  C 64.9399553571429 61.2399553571428  64.9729910714286 61.2069196428571  65.0060267857143 61.165625  Z M 67.9709821428571 39  C 67.7232142857143 42.6904017857143  66.9303571428571 45.9691964285714  65.6171875 49.0828125  C 64.4774553571429 51.7752232142857  62.9743303571429 54.2694196428571  61.1408482142857 56.5323660714286  C 59.0759385832576 54.7478015743812  56.8182853942182 53.1993007980953  54.4098214285714 51.915625  C 55.3678571428571 48.0421875  55.9625 43.7888392857143  56.1194196428571 39  L 67.9709821428571 39  Z M 61.1408482142857 17.4676339285714  C 65.1263637781069 22.3732272127077  67.5104005902242 28.3837674222173  67.9709821428571 35  L 56.1194196428571 35  C 55.9625 30.2111607142857  55.3678571428571 25.9578125  54.4098214285714 22.084375  C 56.8296875 20.7959821428571  59.084375 19.2433035714286  61.1408482142857 17.4676339285714  Z M 48.1743303571429 8.01941964285714  C 48.4799107142857 8.13504464285714  48.7854910714286 8.25892857142857  49.0828125 8.3828125  C 52.3616071428571 9.7703125  55.3430803571428 11.6863839285714  57.9694196428572 14.0979910714286  C 56.4437277314757 15.3970638970627  54.8015090461892 16.5526992681903  53.0636160714286 17.5502232142857  C 51.7669642857143 13.8337053571429  50.1069196428572 10.6044642857143  48.1743303571429 8.01941964285714  Z M 46.4729910714286 60.0424107142857  C 45.0359375 62.7183035714286  43.3511160714286 64.8573660714286  41.6002232142857 66.2448660714286  C 40.8404017857143 66.8395089285714  40.0805803571429 67.29375  39 67.5993303571428  L 39 52.2790178571428  C 42.5895694720059 52.5076505685619  45.8122083308616 53.2374097569977  48.8680803571429 54.4428571428571  C 48.1825892857143 56.4745535714286  47.3897321428571 58.3493303571428  46.4729910714286 60.0424107142857  Z M 41.6002232142857 7.76339285714286  C 43.3511160714286 9.14263392857142  45.0359375 11.2816964285714  46.4729910714286 13.9575892857143  C 47.3814732142857 15.6589285714286  48.1825892857143 17.5337053571429  48.8680803571429 19.5571428571429  C 45.8122083308616 20.7625902430023  42.5895694720059 21.4923494314381  39 21.7209821428571  L 39 6.40892857142857  C 40.0723214285714 6.71450892857143  40.8404017857143 7.16049107142857  41.6002232142857 7.76339285714286  Z M 50.1234375 49.9665178571428  C 46.6574411325025 48.6521865053031  43.0125576622472 47.8697478077158  39.3125 47.6457589285714  L 39.3125 39  L 51.4944196428571 39  C 51.3622767857143 42.9629464285714  50.9080357142857 46.5060267857143  50.1482142857143 49.8674107142857  L 50.1234375 49.9665178571428  Z M 51.4944196428571 35  L 39.3125 35  L 39.3125 26.3542410714286  C 43.0950892857143 26.1229910714286  46.7290178571429 25.321875  50.1234375 24.0334821428571  L 50.1482142857143 24.1325892857143  C 50.9080357142857 27.4939732142857  51.3622767857143 31.0287946428571  51.4944196428571 35  Z M 22.5055803571429 39  L 34.6875 39  L 34.6875 47.6457589285714  C 30.9049107142857 47.8770089285714  27.2709821428571 48.678125  23.8765625 49.9665178571428  L 23.8517857142857 49.8674107142857  C 23.0919642857143 46.5060267857143  22.6377232142857 42.9712053571428  22.5055803571429 39  Z M 34.6875 35  L 22.5055803571429 35  C 22.6377232142857 31.0370535714286  23.0919642857143 27.4939732142857  23.8517857142857 24.1325892857143  L 23.8765625 24.0334821428571  C 27.2709821428571 25.321875  30.8966517857143 26.1229910714286  34.6875 26.3542410714286  L 34.6875 35  Z M 25.1236607142857 54.4345982142857  C 28.1959821428571 53.2287946428571  31.3921875 52.5102678571429  35 52.2790178571428  L 35 67.5910714285714  C 33.9276785714286 67.2854910714286  33.1595982142857 66.8395089285714  32.3997767857143 66.2366071428571  C 30.6488839285714 64.8573660714286  28.9558035714286 62.7100446428571  27.51875 60.0341517857143  C 26.6102678571429 58.3328125  25.8091517857143 56.4580357142857  25.1236607142857 54.4345982142857  Z M 35 21.7209821428571  L 34.6875 21.7209821428571  C 31.4104305279941 21.4923494314381  28.1877916691384 20.7625902430023  25.1319196428571 19.5571428571429  C 25.8174107142857 17.5254464285714  26.6102678571429 15.6506696428571  27.5270089285714 13.9575892857143  C 28.9640625 11.2816964285714  30.6488839285714 9.134375  32.4080357142857 7.75513392857143  C 33.1678571428571 7.16049107142857  33.9276785714286 6.70625  35 6.40066964285714  L 35 21.7209821428571  Z M 16.0305803571429 14.0979910714286  C 18.6569196428571 11.6863839285714  21.6383928571429 9.7703125  24.9171875 8.3828125  C 25.2227678571429 8.25892857142857  25.5200892857143 8.13504464285714  25.8256696428571 8.01941964285714  C 23.8930803571429 10.6044642857143  22.2330357142857 13.8337053571429  20.9363839285714 17.5502232142857  C 19.2020089285714 16.5591517857143  17.5584821428571 15.4029017857143  16.0305803571429 14.0979910714286  Z M 6.02901785714286 35  C 6.27678571428571 31.3095982142857  7.06964285714286 28.0308035714286  8.3828125 24.9171875  C 9.52254464285714 22.2247767857143  11.0256696428571 19.7305803571429  12.8591517857143 17.4676339285714  C 14.915625 19.2433035714286  17.1703125 20.7959821428571  19.5901785714286 22.084375  C 18.6321428571429 25.9578125  18.0375 30.2111607142857  17.8805803571429 35  L 6.02901785714286 35  Z M 12.8591517857143 56.5323660714286  C 8.87363622189303 51.6267727872923  6.4895994097758 45.6162325777827  6.02901785714286 39  L 17.8805803571429 39  C 18.0375 43.7888392857143  18.6321428571429 48.0421875  19.5901785714286 51.915625  C 17.1817146057818 53.1993007980953  14.9240614167424 54.7478015743812  12.8591517857143 56.5323660714286  Z M 25.8256696428571 65.9805803571428  C 25.5200892857143 65.8649553571428  25.2145089285714 65.7410714285714  24.9171875 65.6171875  C 21.6383928571429 64.2296875  18.6569196428571 62.3136160714286  16.0305803571429 59.9020089285714  C 17.5584821428571 58.5970982142857  19.2020089285714 57.4491071428571  20.9363839285714 56.4497767857143  C 22.2330357142857 60.1662946428571  23.8930803571429 63.3955357142857  25.8256696428571 65.9805803571428  Z M 57.9694196428571 59.9020089285714  C 55.3576369051867 62.303566813399  52.3514190470454 64.2369336887092  49.0828125 65.6171875  C 48.7772321428571 65.7410714285714  48.4799107142857 65.8649553571428  48.1743303571429 65.9805803571428  C 50.1069196428571 63.3955357142857  51.7669642857143 60.1662946428571  53.0636160714286 56.4497767857143  C 54.7979910714286 57.4408482142857  56.4415178571428 58.5970982142857  57.9694196428571 59.9020089285714  Z " fill-rule="nonzero" fill="#333333" stroke="none" transform="matrix(1 0 0 1 685 4053 )" />
  </g>
</svg>