<?xml version="1.0" encoding="utf-8"?>
<svg version="1.1" xmlns:xlink="http://www.w3.org/1999/xlink" width="76px" height="72px" xmlns="http://www.w3.org/2000/svg">
  <g transform="matrix(1 0 0 1 -171 -4394 )">
    <path d="M 61.75 0.264705882352941  L 61.75 5  L 76 5  L 76 71  L 0 71  L 0 5  L 14.25 5  L 14.25 0.264705882352941  L 19 0.264705882352941  L 19 5  L 57 5  L 57 0.264705882352941  L 61.75 0.264705882352941  Z M 14.25 14.5588235294118  L 14.25 9.79411764705882  L 4.75 9.79411764705882  L 4.75 20  L 71 20  L 71 9.79411764705882  L 61.75 9.79411764705882  L 61.75 14.5588235294118  L 57 14.5588235294118  L 57 10  L 19 10  L 19 14.5588235294118  L 14.25 14.5588235294118  Z M 5 24  L 5 67  L 71 67  L 71 24  L 5 24  Z M 19 43.1470588235294  L 14.25 43.1470588235294  L 14.25 38.3823529411765  L 19 38.3823529411765  L 19 43.1470588235294  Z M 19 52.6764705882353  L 14.25 52.6764705882353  L 14.25 47.9117647058823  L 19 47.9117647058823  L 19 52.6764705882353  Z M 19 62.2058823529412  L 14.25 62.2058823529412  L 14.25 57.4411764705882  L 19 57.4411764705882  L 19 62.2058823529412  Z M 33.25 33.6176470588235  L 28.5 33.6176470588235  L 28.5 28.8529411764706  L 33.25 28.8529411764706  L 33.25 33.6176470588235  Z M 33.25 43.1470588235294  L 28.5 43.1470588235294  L 28.5 38.3823529411765  L 33.25 38.3823529411765  L 33.25 43.1470588235294  Z M 33.25 52.6764705882353  L 28.5 52.6764705882353  L 28.5 47.9117647058823  L 33.25 47.9117647058823  L 33.25 52.6764705882353  Z M 33.25 62.2058823529412  L 28.5 62.2058823529412  L 28.5 57.4411764705882  L 33.25 57.4411764705882  L 33.25 62.2058823529412  Z M 47.5 33.6176470588235  L 42.75 33.6176470588235  L 42.75 28.8529411764706  L 47.5 28.8529411764706  L 47.5 33.6176470588235  Z M 47.5 43.1470588235294  L 42.75 43.1470588235294  L 42.75 38.3823529411765  L 47.5 38.3823529411765  L 47.5 43.1470588235294  Z M 47.5 52.6764705882353  L 42.75 52.6764705882353  L 42.75 47.9117647058823  L 47.5 47.9117647058823  L 47.5 52.6764705882353  Z M 47.5 62.2058823529412  L 42.75 62.2058823529412  L 42.75 57.4411764705882  L 47.5 57.4411764705882  L 47.5 62.2058823529412  Z M 61.75 33.6176470588235  L 57 33.6176470588235  L 57 28.8529411764706  L 61.75 28.8529411764706  L 61.75 33.6176470588235  Z M 61.75 43.1470588235294  L 57 43.1470588235294  L 57 38.3823529411765  L 61.75 38.3823529411765  L 61.75 43.1470588235294  Z M 61.75 52.6764705882353  L 57 52.6764705882353  L 57 47.9117647058823  L 61.75 47.9117647058823  L 61.75 52.6764705882353  Z " fill-rule="nonzero" fill="#333333" stroke="none" transform="matrix(1 0 0 1 171 4394 )" />
  </g>
</svg>