<?xml version="1.0" encoding="utf-8"?>
<svg version="1.1" xmlns:xlink="http://www.w3.org/1999/xlink" width="56px" height="67px" xmlns="http://www.w3.org/2000/svg">
  <g transform="matrix(1 0 0 1 -448 -4762 )">
    <path d="M 55.628125 48.4397786458333  C 55.8760416666667 50.6353081597222  56 52.9689670138889  56 55.4407552083333  C 56 58.6104600694445  55.0885416666667 61.3294270833333  53.265625 63.59765625  C 51.4427083333333 65.8658854166667  49.2479166666667 67  46.68125 67  L 9.31875 67  C 6.75208333333333 67  4.55729166666667 65.8658854166667  2.734375 63.59765625  C 0.911458333333334 61.3294270833333  0 58.6104600694445  0 55.4407552083333  C 0 52.9689670138889  0.123958333333334 50.6353081597222  0.371875 48.4397786458333  C 0.619791666666667 46.2442491319444  1.07916666666667 44.0341796875  1.75 41.8095703125  C 2.42083333333333 39.5849609375  3.27395833333333 37.6802300347222  4.309375 36.0953776041667  C 5.34479166666667 34.5105251736111  6.715625 33.2164713541667  8.421875 32.2132161458333  C 10.128125 31.2099609375  12.0895833333333 30.7083333333333  14.30625 30.7083333333333  C 18.1270833333333 34.4305555555556  22.6916666666667 36.2916666666667  28 36.2916666666667  C 33.3083333333333 36.2916666666667  37.8729166666667 34.4305555555556  41.69375 30.7083333333333  C 43.9104166666667 30.7083333333333  45.871875 31.2099609375  47.578125 32.2132161458333  C 49.284375 33.2164713541667  50.6552083333333 34.5105251736111  51.690625 36.0953776041667  C 52.7260416666667 37.6802300347222  53.5791666666667 39.5849609375  54.25 41.8095703125  C 54.9208333333333 44.0341796875  55.3802083333333 46.2442491319444  55.628125 48.4397786458333  Z M 39.878125 4.9072265625  C 43.159375 8.1787109375  44.8 12.1263020833333  44.8 16.75  C 44.8 21.3736979166667  43.159375 25.3212890625  39.878125 28.5927734375  C 36.596875 31.8642578125  32.6375 33.5  28 33.5  C 23.3625 33.5  19.403125 31.8642578125  16.121875 28.5927734375  C 12.840625 25.3212890625  11.2 21.3736979166667  11.2 16.75  C 11.2 12.1263020833333  12.840625 8.1787109375  16.121875 4.9072265625  C 19.403125 1.6357421875  23.3625 0  28 0  C 32.6375 0  36.596875 1.6357421875  39.878125 4.9072265625  Z " fill-rule="nonzero" fill="#000000" stroke="none" transform="matrix(1 0 0 1 448 4762 )" />
  </g>
</svg>