<?xml version="1.0" encoding="utf-8"?>
<svg version="1.1" xmlns:xlink="http://www.w3.org/1999/xlink" width="114px" height="125px" xmlns="http://www.w3.org/2000/svg">
  <g transform="matrix(1 0 0 1 -655 -696 )">
    <path d="M 655 696  L 769 696  L 769 821  L 655 821  L 655 696  " fill-rule="nonzero" fill="#cccccc" stroke="none" />
    <path d="M 663 704  L 761 704  L 761 813  L 663 813  L 663 704  " fill-rule="nonzero" fill="#ffffff" stroke="none" />
    <path d="M 722.83 731.85  C 718.042 731.85  714.28 728.088  714.28 723.3  C 714.28 718.512  718.042 714.75  722.83 714.75  C 727.618 714.75  731.38 718.512  731.38 723.3  C 731.38 728.088  727.618 731.85  722.83 731.85  " fill-rule="nonzero" fill="#cccccc" stroke="none" />
    <path d="M 666 810  L 666 753.35  L 689 727.6  L 721.2 748.2  L 739.6 743.05  L 758 748.2  L 758 810  L 666 810  " fill-rule="nonzero" fill="#169bd5" stroke="none" />
  </g>
</svg>