<?xml version="1.0" encoding="utf-8"?>
<svg version="1.1" xmlns:xlink="http://www.w3.org/1999/xlink" width="43px" height="39px" xmlns="http://www.w3.org/2000/svg">
  <g transform="matrix(1 0 0 1 -74 -4 )">
    <path d="M 74 4  L 117 4  L 117 43  L 74 43  L 74 4  " fill-rule="nonzero" fill="#cccccc" stroke="none" />
    <path d="M 77 7  L 114 7  L 114 40  L 77 40  L 77 7  " fill-rule="nonzero" fill="#ffffff" stroke="none" />
    <path d="M 99.285 15.7  C 97.647 15.7  96.36 14.413  96.36 12.775  C 96.36 11.137  97.647 9.85  99.285 9.85  C 100.923 9.85  102.21 11.137  102.21 12.775  C 102.21 14.413  100.923 15.7  99.285 15.7  " fill-rule="nonzero" fill="#cccccc" stroke="none" />
    <path d="M 78 39  L 78 21.95  L 86.75 14.2  L 99 22.1302325581395  L 106 18.85  L 113 22.1302325581395  L 113 39  L 78 39  " fill-rule="nonzero" fill="#169bd5" stroke="none" />
  </g>
</svg>