<?xml version="1.0" encoding="utf-8"?>
<svg version="1.1" xmlns:xlink="http://www.w3.org/1999/xlink" width="76px" height="84px" xmlns="http://www.w3.org/2000/svg">
  <defs>
    <mask fill="white" id="clip86">
      <path d="M 0 42.2455089820359  L 37.2450331125828 0  L 76 33.0838323353293  L 72.5 49.7964071856287  L 67 62.3712574850299  L 55.5 75.5  L 45 84  L 0 42.2455089820359  Z " fill-rule="evenodd" />
    </mask>
  </defs>
  <g transform="matrix(1 0 0 1 47 -189 )">
    <path d="M 0 42.2455089820359  L 37.2450331125828 0  L 76 33.0838323353293  L 72.5 49.7964071856287  L 67 62.3712574850299  L 55.5 75.5  L 45 84  L 0 42.2455089820359  Z " fill-rule="nonzero" fill="#f4f3f0" stroke="none" transform="matrix(1 0 0 1 -47 189 )" />
    <path d="M 0 42.2455089820359  L 37.2450331125828 0  L 76 33.0838323353293  L 72.5 49.7964071856287  L 67 62.3712574850299  L 55.5 75.5  L 45 84  L 0 42.2455089820359  Z " stroke-width="2" stroke="#797979" fill="none" transform="matrix(1 0 0 1 -47 189 )" mask="url(#clip86)" />
  </g>
</svg>