<?xml version="1.0" encoding="utf-8"?>
<svg version="1.1" xmlns:xlink="http://www.w3.org/1999/xlink" width="31px" height="32px" xmlns="http://www.w3.org/2000/svg">
  <defs>
    <mask fill="white" id="clip47">
      <path d="M 0.25 0.5  L 30.5 32  L 17.5 30.75  L 12.75 24.25  L 8.5 22.75  L 3 22.75  L 0.25 11.75  L 0.25 0.5  Z " fill-rule="evenodd" />
    </mask>
  </defs>
  <g transform="matrix(1 0 0 1 -83 -8 )">
    <path d="M 0.25 0.5  L 30.5 32  L 17.5 30.75  L 12.75 24.25  L 8.5 22.75  L 3 22.75  L 0.25 11.75  L 0.25 0.5  Z " fill-rule="nonzero" fill="#f4f3f0" stroke="none" transform="matrix(1 0 0 1 83 8 )" />
    <path d="M 0.25 0.5  L 30.5 32  L 17.5 30.75  L 12.75 24.25  L 8.5 22.75  L 3 22.75  L 0.25 11.75  L 0.25 0.5  Z " stroke-width="2" stroke="#797979" fill="none" transform="matrix(1 0 0 1 83 8 )" mask="url(#clip47)" />
  </g>
</svg>