<?xml version="1.0" encoding="utf-8"?>
<svg version="1.1" xmlns:xlink="http://www.w3.org/1999/xlink" width="80px" height="194px" xmlns="http://www.w3.org/2000/svg">
  <defs>
    <mask fill="white" id="clip66">
      <path d="M 68 92  L 64 194  L 33.5 165  L 36 146.5  L 36 130.5  L 33.5 120.5  L 26.5 112  L 8.5 104  L 0 92.5  L 20.5 86  L 39.5 68.5  L 57.5 24  L 68 0  L 80 0  L 75 22.5  L 73.5 39.5  L 70.5 85  L 49.5 85  L 46.5 88  L 46.5 90  L 48.5 92  L 68 92  Z " fill-rule="evenodd" />
    </mask>
  </defs>
  <g transform="matrix(1 0 0 1 -320 -5 )">
    <path d="M 68 92  L 64 194  L 33.5 165  L 36 146.5  L 36 130.5  L 33.5 120.5  L 26.5 112  L 8.5 104  L 0 92.5  L 20.5 86  L 39.5 68.5  L 57.5 24  L 68 0  L 80 0  L 75 22.5  L 73.5 39.5  L 70.5 85  L 49.5 85  L 46.5 88  L 46.5 90  L 48.5 92  L 68 92  Z " fill-rule="nonzero" fill="#f4f3f0" stroke="none" transform="matrix(1 0 0 1 320 5 )" />
    <path d="M 68 92  L 64 194  L 33.5 165  L 36 146.5  L 36 130.5  L 33.5 120.5  L 26.5 112  L 8.5 104  L 0 92.5  L 20.5 86  L 39.5 68.5  L 57.5 24  L 68 0  L 80 0  L 75 22.5  L 73.5 39.5  L 70.5 85  L 49.5 85  L 46.5 88  L 46.5 90  L 48.5 92  L 68 92  Z " stroke-width="2" stroke="#797979" fill="none" transform="matrix(1 0 0 1 320 5 )" mask="url(#clip66)" />
  </g>
</svg>