<?xml version="1.0" encoding="utf-8"?>
<svg version="1.1" xmlns:xlink="http://www.w3.org/1999/xlink" width="115px" height="115px" xmlns="http://www.w3.org/2000/svg">
  <defs>
    <mask fill="white" id="clip429">
      <path d="M 115 74.75  L 34.5 0  C 0.25 39.5  0.25 39.5  0.25 39.5  L 83.5 115  L 115 74.75  Z " fill-rule="evenodd" />
    </mask>
  </defs>
  <g transform="matrix(1 0 0 1 -284 -318 )">
    <path d="M 115 74.75  L 34.5 0  C 0.25 39.5  0.25 39.5  0.25 39.5  L 83.5 115  L 115 74.75  Z " fill-rule="nonzero" fill="#f4f3f0" stroke="none" transform="matrix(1 0 0 1 284 318 )" />
    <path d="M 115 74.75  L 34.5 0  C 0.25 39.5  0.25 39.5  0.25 39.5  L 83.5 115  L 115 74.75  Z " stroke-width="2" stroke="#797979" fill="none" transform="matrix(1 0 0 1 284 318 )" mask="url(#clip429)" />
  </g>
</svg>