<?xml version="1.0" encoding="utf-8"?>
<svg version="1.1" xmlns:xlink="http://www.w3.org/1999/xlink" width="99px" height="95px" xmlns="http://www.w3.org/2000/svg">
  <defs>
    <mask fill="white" id="clip7">
      <path d="M 99 57  L 33.5 0  C -0.839173684507841 38  0.022381732888789 38  0.022381732888789 38  L 33.5 69.5  L 62.6408749222855 95  L 99 57  Z " fill-rule="evenodd" />
    </mask>
  </defs>
  <g transform="matrix(1 0 0 1 -149 -196 )">
    <path d="M 99 57  L 33.5 0  C -0.839173684507841 38  0.022381732888789 38  0.022381732888789 38  L 33.5 69.5  L 62.6408749222855 95  L 99 57  Z " fill-rule="nonzero" fill="#f4f3f0" stroke="none" transform="matrix(1 0 0 1 149 196 )" />
    <path d="M 99 57  L 33.5 0  C -0.839173684507841 38  0.022381732888789 38  0.022381732888789 38  L 33.5 69.5  L 62.6408749222855 95  L 99 57  Z " stroke-width="2" stroke="#797979" fill="none" transform="matrix(1 0 0 1 149 196 )" mask="url(#clip7)" />
  </g>
</svg>