<?xml version="1.0" encoding="utf-8"?>
<svg version="1.1" xmlns:xlink="http://www.w3.org/1999/xlink" width="81px" height="92px" xmlns="http://www.w3.org/2000/svg">
  <defs>
    <mask fill="white" id="clip221">
      <path d="M 29.5 14.5  L 32.1987577639752 0  L 81 46.7540983606557  L 40.751552795031 92  L 0 51.2786885245902  L 24 28  L 29.5 14.5  Z " fill-rule="evenodd" />
    </mask>
  </defs>
  <g transform="matrix(1 0 0 1 -18 -233 )">
    <path d="M 29.5 14.5  L 32.1987577639752 0  L 81 46.7540983606557  L 40.751552795031 92  L 0 51.2786885245902  L 24 28  L 29.5 14.5  Z " fill-rule="nonzero" fill="#f4f3f0" stroke="none" transform="matrix(1 0 0 1 18 233 )" />
    <path d="M 29.5 14.5  L 32.1987577639752 0  L 81 46.7540983606557  L 40.751552795031 92  L 0 51.2786885245902  L 24 28  L 29.5 14.5  Z " stroke-width="2" stroke="#797979" fill="none" transform="matrix(1 0 0 1 18 233 )" mask="url(#clip221)" />
  </g>
</svg>