<?xml version="1.0" encoding="utf-8"?>
<svg version="1.1" xmlns:xlink="http://www.w3.org/1999/xlink" width="11px" height="9px" xmlns="http://www.w3.org/2000/svg">
  <g transform="matrix(1 0 0 1 -100 -111 )">
    <path d="M 9.41883519206939 5.14185502727981  C 9.42337876910368 5.15120810600156  9.42565055762082 5.16523772408418  9.42565055762082 5.18394388152767  L 9.42565055762082 8.5510522213562  C 9.42565055762082 8.67264224473889  9.38248657579513 8.77786438035854  9.29615861214374 8.86671862821512  C 9.20983064849236 8.95557287607171  9.10760016522099 9  8.98946716232962 9  L 6.3723667905824 9  L 6.3723667905824 6.30631332813718  L 4.6276332094176 6.30631332813718  L 4.6276332094176 9  L 2.01053283767038 9  C 1.89239983477902 9  1.79016935150764 8.95557287607171  1.70384138785626 8.86671862821512  C 1.61751342420487 8.77786438035854  1.57434944237918 8.67264224473889  1.57434944237918 8.5510522213562  L 1.57434944237918 5.18394388152767  C 1.57434944237918 5.1792673421668  1.57548533663775 5.17225253312549  1.57775712515489 5.16289945440374  C 1.58002891367204 5.153546375682  1.58116480793061 5.14653156664069  1.58116480793061 5.14185502727981  L 5.5 1.81683554169914  L 9.41883519206939 5.14185502727981  Z M 10.9931846344486 4.53507404520655  C 10.9977282114829 4.59820732657833  10.9818256918629 4.65315666406859  10.9454770755886 4.69992205767732  L 10.5229244114002 5.21901792673422  C 10.486575795126 5.26110678098207  10.438868236266 5.28682774746687  10.3798017348203 5.29618082618862  L 10.359355638166 5.29618082618862  C 10.3002891367204 5.29618082618862  10.2525815778604 5.27981293842556  10.2162329615861 5.24707716289945  L 5.5 1.19953234606391  L 0.783767038413879 5.24707716289945  C 0.729244114002478 5.28448947778644  0.674721189591078 5.30085736554949  0.620198265179678 5.29618082618862  C 0.561131763733994 5.28682774746687  0.513424204874019 5.26110678098207  0.477075588599752 5.21901792673422  L 0.0545229244114002 4.69992205767732  C 0.0181743081371334 4.65315666406859  0.00227178851714169 4.59820732657833  0.00681536555142503 4.53507404520655  C 0.0113589425857084 4.47194076383476  0.0363486162742668 4.42166796570538  0.0817843866171004 4.38425565081839  L 4.9820322180917 0.182385035074045  C 5.12742668318876 0.0607950116913475  5.30008261049153 0  5.5 0  C 5.69991738950847 0  5.87257331681124 0.0607950116913475  6.0179677819083 0.182385035074045  L 7.68091697645601 1.61340607950117  L 7.68091697645601 0.24551831644583  C 7.68091697645601 0.180046765393608  7.70136307311028 0.126266562743569  7.74225526641883 0.0841777084957136  C 7.78314745972739 0.0420888542478568  7.83539859562164 0.0210444271239284  7.89900867410161 0.0210444271239284  L 9.20755885997522 0.0210444271239284  C 9.27116893845519 0.0210444271239284  9.32342007434944 0.0420888542478568  9.36431226765799 0.0841777084957136  C 9.40520446096654 0.126266562743569  9.42565055762082 0.180046765393608  9.42565055762082 0.24551831644583  L 9.42565055762082 3.10756040530008  L 10.9182156133829 4.38425565081839  C 10.9636513837257 4.42166796570538  10.9886410574143 4.47194076383476  10.9931846344486 4.53507404520655  Z " fill-rule="nonzero" fill="#555555" stroke="none" transform="matrix(1 0 0 1 100 111 )" />
  </g>
</svg>