<?xml version="1.0" encoding="utf-8"?>
<svg version="1.1" xmlns:xlink="http://www.w3.org/1999/xlink" width="49px" height="151px" xmlns="http://www.w3.org/2000/svg">
  <defs>
    <mask fill="white" id="clip262">
      <path d="M 34.5 0  L 4 19  L 0.5 93  L 0.5 151  L 45.5 127.5  L 48.5 75  L 34.5 0  Z " fill-rule="evenodd" />
    </mask>
  </defs>
  <g transform="matrix(1 0 0 1 -283 76 )">
    <path d="M 34.5 0  L 4 19  L 0.5 93  L 0.5 151  L 45.5 127.5  L 48.5 75  L 34.5 0  Z " fill-rule="nonzero" fill="#f4f3f0" stroke="none" transform="matrix(1 0 0 1 283 -76 )" />
    <path d="M 34.5 0  L 4 19  L 0.5 93  L 0.5 151  L 45.5 127.5  L 48.5 75  L 34.5 0  Z " stroke-width="2" stroke="#797979" fill="none" transform="matrix(1 0 0 1 283 -76 )" mask="url(#clip262)" />
  </g>
</svg>