<?xml version="1.0" encoding="utf-8"?>
<svg version="1.1" xmlns:xlink="http://www.w3.org/1999/xlink" width="13px" height="13px" viewBox="10 86.5  13 13" xmlns="http://www.w3.org/2000/svg">
  <path d="M 10.5 88.5  A 1.5 1.5 0 0 1 12 87 L 21 87  A 1.5 1.5 0 0 1 22.5 88.5 L 22.5 97.5  A 1.5 1.5 0 0 1 21 99 L 12 99  A 1.5 1.5 0 0 1 10.5 97.5 L 10.5 88.5  Z " fill-rule="nonzero" fill="#ffffff" stroke="none" />
  <path d="M 10.5 88.5  A 1.5 1.5 0 0 1 12 87 L 21 87  A 1.5 1.5 0 0 1 22.5 88.5 L 22.5 97.5  A 1.5 1.5 0 0 1 21 99 L 12 99  A 1.5 1.5 0 0 1 10.5 97.5 L 10.5 88.5  Z " stroke-width="1" stroke="#8c8c8c" fill="none" />
</svg>