<?xml version="1.0" encoding="utf-8"?>
<svg version="1.1" xmlns:xlink="http://www.w3.org/1999/xlink" width="14px" height="14px" viewBox="196 570  14 14" xmlns="http://www.w3.org/2000/svg">
  <path d="M 196.5 572  A 1.5 1.5 0 0 1 198 570.5 L 208 570.5  A 1.5 1.5 0 0 1 209.5 572 L 209.5 582  A 1.5 1.5 0 0 1 208 583.5 L 198 583.5  A 1.5 1.5 0 0 1 196.5 582 L 196.5 572  Z " fill-rule="nonzero" fill="#f0f0f0" stroke="none" />
  <path d="M 196.5 572  A 1.5 1.5 0 0 1 198 570.5 L 208 570.5  A 1.5 1.5 0 0 1 209.5 572 L 209.5 582  A 1.5 1.5 0 0 1 208 583.5 L 198 583.5  A 1.5 1.5 0 0 1 196.5 582 L 196.5 572  Z " stroke-width="1" stroke="#797979" fill="none" />
  <path d="M 199.5 577.5  L 202.5 580.5  " stroke-width="3" stroke="#797979" fill="none" />
  <path d="M 202.5 580.5  L 207.5 573.5  " stroke-width="3" stroke="#797979" fill="none" />
</svg>