<?xml version="1.0" encoding="utf-8"?>
<svg version="1.1" xmlns:xlink="http://www.w3.org/1999/xlink" width="14px" height="14px" viewBox="281 570  14 14" xmlns="http://www.w3.org/2000/svg">
  <path d="M 281.5 572  A 1.5 1.5 0 0 1 283 570.5 L 293 570.5  A 1.5 1.5 0 0 1 294.5 572 L 294.5 582  A 1.5 1.5 0 0 1 293 583.5 L 283 583.5  A 1.5 1.5 0 0 1 281.5 582 L 281.5 572  Z " fill-rule="nonzero" fill="#f0f0f0" stroke="none" />
  <path d="M 281.5 572  A 1.5 1.5 0 0 1 283 570.5 L 293 570.5  A 1.5 1.5 0 0 1 294.5 572 L 294.5 582  A 1.5 1.5 0 0 1 293 583.5 L 283 583.5  A 1.5 1.5 0 0 1 281.5 582 L 281.5 572  Z " stroke-width="1" stroke="#797979" fill="none" />
</svg>