<?xml version="1.0" encoding="utf-8"?>
<svg version="1.1" xmlns:xlink="http://www.w3.org/1999/xlink" width="24px" height="24px" xmlns="http://www.w3.org/2000/svg">
  <g transform="matrix(1 0 0 1 -606 -178 )">
    <path d="M 23.871 3.142  C 23.786 3.116  23.68 3.102  23.553 3.102  L 15.513 3.102  L 15.513 4.59  L 17.883 4.59  L 17.883 6.944  L 15.513 6.944  L 15.513 7.694  L 17.883 7.694  L 17.883 10.051  L 15.513 10.051  L 15.513 10.822  L 17.883 10.822  L 17.883 13.051  L 15.513 13.051  L 15.513 13.944  L 17.883 13.944  L 17.883 16.178  L 15.513 16.178  L 15.513 17.071  L 17.883 17.071  L 17.883 19.318  L 15.513 19.318  L 15.513 20.957  L 23.553 20.957  C 23.68 20.919  23.786 20.769  23.871 20.509  C 23.956 20.247  24 20.034  24 19.873  L 24 3.374  C 24 3.246  23.956 3.169  23.871 3.142  Z M 22.51 19.318  L 22.51 19.316  L 18.653 19.316  L 18.653 17.071  L 22.51 17.071  L 22.51 19.318  Z M 22.51 13.943  L 22.51 16.178  L 18.653 16.178  L 18.653 13.943  L 22.51 13.943  Z M 22.51 13.052  L 22.51 13.05  L 18.653 13.05  L 18.653 10.831  L 22.51 10.831  L 22.51 13.052  Z M 22.51 10.051  L 22.51 10.05  L 18.653 10.05  L 18.653 7.696  L 22.51 7.696  L 22.51 10.051  Z M 22.51 6.946  L 22.51 6.931  L 18.653 6.931  L 18.653 4.591  L 22.51 4.591  L 22.51 6.946  Z M 0 2.739  L 0 2.731  L 0 21.332  L 14 23.781  L 14 0.219  L 0 2.739  Z M 8.393 16.8  L 8.393 16.802  C 8.339 16.656  8.085 16.036  7.635 14.939  C 7.186 13.843  6.915 13.205  6.836 13.023  L 6.811 13.023  L 5.292 16.638  L 3.262 16.501  L 5.67 12.001  L 3.465 7.501  L 5.535 7.392  L 6.903 10.913  L 6.93 10.913  L 8.475 7.232  L 10.614 7.097  L 8.067 11.967  L 10.692 16.935  L 8.393 16.8  Z " fill-rule="nonzero" fill="#217346" stroke="none" transform="matrix(1 0 0 1 606 178 )" />
  </g>
</svg>