<?xml version="1.0" encoding="utf-8"?>
<svg version="1.1" xmlns:xlink="http://www.w3.org/1999/xlink" width="14px" height="14px" viewBox="291 528  14 14" xmlns="http://www.w3.org/2000/svg">
  <path d="M 291.5 530  A 1.5 1.5 0 0 1 293 528.5 L 303 528.5  A 1.5 1.5 0 0 1 304.5 530 L 304.5 540  A 1.5 1.5 0 0 1 303 541.5 L 293 541.5  A 1.5 1.5 0 0 1 291.5 540 L 291.5 530  Z " fill-rule="nonzero" fill="#ffffff" stroke="none" />
  <path d="M 291.5 530  A 1.5 1.5 0 0 1 293 528.5 L 303 528.5  A 1.5 1.5 0 0 1 304.5 530 L 304.5 540  A 1.5 1.5 0 0 1 303 541.5 L 293 541.5  A 1.5 1.5 0 0 1 291.5 540 L 291.5 530  Z " stroke-width="1" stroke="#797979" fill="none" />
  <path d="M 294.5 535.5  L 297.5 538.5  " stroke-width="3" stroke="#797979" fill="none" />
  <path d="M 297.5 538.5  L 302.5 531.5  " stroke-width="3" stroke="#797979" fill="none" />
</svg>