<?xml version="1.0" encoding="utf-8"?>
<svg version="1.1" xmlns:xlink="http://www.w3.org/1999/xlink" width="17px" height="17px" xmlns="http://www.w3.org/2000/svg">
  <g transform="matrix(1 0 0 1 -566 -15 )">
    <path d="M 16.4294305098684 16.4294305098684  C 17.0410670230263 15.8134251644737  17.0410670230263 14.8173314144737  16.4294305098684 14.2056949013158  L 10.7237356085526 8.5  L 16.4294305098684 2.79430509868421  C 17.0454358552632 2.17829975328947  17.0454358552632 1.18657483552632  16.4294305098684 0.570569490131579  C 15.8134251644737 -0.0454358552631579  14.8217002467105 -0.0454358552631579  14.2056949013158 0.570569490131579  L 8.5 6.27626439144737  L 2.79430509868421 0.570569490131579  C 2.17829975328947 -0.0454358552631579  1.18657483552632 -0.0454358552631579  0.570569490131579 0.570569490131579  C -0.0454358552631579 1.18657483552632  -0.0454358552631579 2.17829975328947  0.570569490131579 2.79430509868421  L 6.27626439144737 8.5  L 0.570569490131579 14.2056949013158  C -0.0454358552631579 14.8217002467105  -0.0454358552631579 15.8134251644737  0.570569490131579 16.4294305098684  C 1.18657483552632 17.0454358552632  2.17829975328947 17.0454358552632  2.79430509868421 16.4294305098684  L 8.5 10.7237356085526  L 14.2056949013158 16.4294305098684  C 14.8217002467105 17.0454358552632  15.8134251644737 17.0454358552632  16.4294305098684 16.4294305098684  Z " fill-rule="nonzero" fill="#000000" stroke="none" transform="matrix(1 0 0 1 566 15 )" />
  </g>
</svg>