<?xml version="1.0" encoding="utf-8"?>
<svg version="1.1" xmlns:xlink="http://www.w3.org/1999/xlink" width="155px" height="170px" xmlns="http://www.w3.org/2000/svg">
  <g transform="matrix(1 0 0 1 -159 -945 )">
    <path d="M 159 945  L 314 945  L 314 1115  L 159 1115  L 159 945  " fill-rule="nonzero" fill="#cccccc" stroke="none" />
    <path d="M 170 956  L 303 956  L 303 1104  L 170 1104  L 170 956  " fill-rule="nonzero" fill="#ffffff" stroke="none" />
    <path d="M 251.225 993.75  C 244.715 993.75  239.6 988.635  239.6 982.125  C 239.6 975.615  244.715 970.5  251.225 970.5  C 257.735 970.5  262.85 975.615  262.85 982.125  C 262.85 988.635  257.735 993.75  251.225 993.75  " fill-rule="nonzero" fill="#cccccc" stroke="none" />
    <path d="M 174 1100  L 174 1023  L 205.25 988  L 249 1016  L 274 1009  L 299 1016  L 299 1100  L 174 1100  " fill-rule="nonzero" fill="#169bd5" stroke="none" />
  </g>
</svg>