<?xml version="1.0" encoding="utf-8"?>
<svg version="1.1" xmlns:xlink="http://www.w3.org/1999/xlink" width="93px" height="102px" xmlns="http://www.w3.org/2000/svg">
  <g transform="matrix(1 0 0 1 -96 -564 )">
    <path d="M 96 564  L 189 564  L 189 666  L 96 666  L 96 564  " fill-rule="nonzero" fill="#cccccc" stroke="none" />
    <path d="M 103 571  L 182 571  L 182 659  L 103 659  L 103 571  " fill-rule="nonzero" fill="#ffffff" stroke="none" />
    <path d="M 151.335 593.25  C 147.429 593.25  144.36 590.181  144.36 586.275  C 144.36 582.369  147.429 579.3  151.335 579.3  C 155.241 579.3  158.31 582.369  158.31 586.275  C 158.31 590.181  155.241 593.25  151.335 593.25  " fill-rule="nonzero" fill="#cccccc" stroke="none" />
    <path d="M 106 657  L 106 611.35  L 124.5 590.6  L 150.4 607.2  L 165.2 603.05  L 180 607.2  L 180 657  L 106 657  " fill-rule="nonzero" fill="#169bd5" stroke="none" />
  </g>
</svg>