<?xml version="1.0" encoding="utf-8"?>
<svg version="1.1" xmlns:xlink="http://www.w3.org/1999/xlink" width="67px" height="84px" xmlns="http://www.w3.org/2000/svg">
  <g transform="matrix(1 0 0 1 -176 -4048 )">
    <path d="M 33.8491052631579 0.035  L 33.5 0  L 0 3.479  L 0 64.267  L 33.5 84  L 67 64.267  L 67 3.479  L 33.8491052631579 0.035  Z M 62 61.796  L 62.5427368421053 61.7995  L 33.5 78.9495  L 5 61.7995  L 5 36.883  L 33.3730526315789 53.9665  L 33.4224210526316 57.064  L 13.5833684210526 45.3425  L 13.5551578947368 48.3525  L 33.4717894736842 60.2315  L 33.5246842105263 63.4095  L 13.6115789473684 51.6495  L 13.5833684210526 54.6595  L 33.5 66.535  L 53.6105789473684 54.593  L 53.6105789473684 51.576  L 53.5823684210526 51.59  L 53.5823684210526 41.7725  L 62 36.463  L 62 61.796  Z M 33.3377894736842 16.352  L 62.5215789473684 33.2325  L 54.5732631578947 37.8805  L 50.9058947368421 40.026  L 33.4153684210526 29.6975  L 33.3836315789474 32.7005  L 48.3352105263158 41.524  L 48.2047368421053 41.6045  L 47.8803157894737 41.7935  L 45.7574736842105 43.036  L 33.4153684210526 35.7455  L 33.3836315789474 38.752  L 43.1268421052632 44.5025  L 40.8276842105263 46.0285  L 40.7747894736842 46.0635  L 33.4118421052632 41.7585  L 33.3836315789474 44.7615  L 38.2146842105263 47.586  L 33.2954736842105 50.5155  L 4.52073684210528 33.5405  L 33.3377894736842 16.3485  L 33.3377894736842 16.352  Z M 62 30.205  L 62.5427368421053 30.2085  L 33.3448421052632 13.1215  L 33.3377894736842 13.1215  L 5 30.191  L 5 7.385  L 33.5 4.361  L 62 7.385  L 62 30.205  Z " fill-rule="nonzero" fill="#333333" stroke="none" transform="matrix(1 0 0 1 176 4048 )" />
  </g>
</svg>