<?xml version="1.0" encoding="utf-8"?>
<svg version="1.1" xmlns:xlink="http://www.w3.org/1999/xlink" width="79px" height="79px" xmlns="http://www.w3.org/2000/svg">
  <g transform="matrix(1 0 0 1 -940 -4053 )">
    <path d="M 48.44921875 48.44921875  C 52.6112780448718 44.2871594551282  54.6923076923077 39.2784455128205  54.6923076923077 33.4230769230769  C 54.6923076923077 27.5677083333333  52.6112780448718 22.5589943910256  48.44921875 18.3969350961538  C 44.2871594551282 14.234875801282  39.2784455128205 12.1538461538462  33.4230769230769 12.1538461538462  C 27.5677083333333 12.1538461538462  22.5589943910256 14.234875801282  18.3969350961538 18.3969350961538  C 14.2348758012821 22.5589943910256  12.1538461538462 27.5677083333333  12.1538461538462 33.4230769230769  C 12.1538461538462 39.2784455128205  14.2348758012821 44.2871594551282  18.3969350961538 48.44921875  C 22.5589943910256 52.6112780448718  27.5677083333333 54.6923076923077  33.4230769230769 54.6923076923077  C 39.2784455128205 54.6923076923077  44.2871594551282 52.6112780448718  48.44921875 48.44921875  Z M 77.2433894230769 68.6502403846154  C 78.4144631410256 69.8213141025641  79 71.245592948718  79 72.9230769230769  C 79 74.5689102564103  78.3986378205128 75.9931891025641  77.1959134615385 77.1959134615385  C 75.9931891025641 78.3986378205128  74.5689102564103 79  72.9230769230769 79  C 71.2139423076923 79  69.7896634615385 78.3986378205128  68.6502403846154 77.1959134615385  L 52.3659855769231 60.9591346153846  C 46.7005208333333 64.8838141025641  40.386217948718 66.8461538461538  33.4230769230769 66.8461538461538  C 28.8970352564103 66.8461538461538  24.5688100961538 65.9678485576923  20.4384014423077 64.2112379807692  C 16.3079927884615 62.4546274038462  12.7472956730769 60.0808293269231  9.75631009615385 57.08984375  C 6.76532451923077 54.0988581730769  4.39152644230769 50.5381610576923  2.63491586538462 46.4077524038462  C 0.878305288461539 42.27734375  0 37.9491185897436  0 33.4230769230769  C 0 28.8970352564102  0.878305288461539 24.5688100961538  2.63491586538462 20.4384014423077  C 4.39152644230769 16.3079927884615  6.76532451923077 12.7472956730769  9.75631009615385 9.75631009615384  C 12.7472956730769 6.76532451923077  16.3079927884615 4.39152644230769  20.4384014423077 2.63491586538462  C 24.5688100961538 0.878305288461536  28.8970352564103 0  33.4230769230769 0  C 37.9491185897436 0  42.27734375 0.878305288461536  46.4077524038462 2.63491586538462  C 50.5381610576923 4.39152644230769  54.0988581730769 6.76532451923077  57.08984375 9.75631009615384  C 60.0808293269231 12.7472956730769  62.4546274038462 16.3079927884615  64.2112379807692 20.4384014423077  C 65.9678485576923 24.5688100961538  66.8461538461538 28.8970352564102  66.8461538461538 33.4230769230769  C 66.8461538461538 40.3862179487179  64.8838141025641 46.7005208333333  60.9591346153846 52.3659855769231  L 77.2433894230769 68.6502403846154  Z " fill-rule="nonzero" fill="#333333" stroke="none" transform="matrix(1 0 0 1 940 4053 )" />
  </g>
</svg>