<?xml version="1.0" encoding="utf-8"?>
<svg version="1.1" xmlns:xlink="http://www.w3.org/1999/xlink" width="53px" height="53px" xmlns="http://www.w3.org/2000/svg">
  <g transform="matrix(1 0 0 1 -119 -3300 )">
    <path d="M 46.5583705357143 43.8078125  C 46.6252543131608 43.7364995697044  46.6903416815833 43.6635228232913  46.7535714285714 43.5889508928571  C 46.7654017857143 43.5712053571428  46.7831473214286 43.5534598214286  46.7949776785714 43.5357142857143  C 50.6694196428572 38.9277901785714  53 32.9889508928571  53 26.5  C 53 20.0110491071428  50.6694196428572 14.0722098214286  46.8008928571429 9.46428571428571  C 46.7890625 9.44654017857142  46.7713169642857 9.43470982142857  46.7594866071429 9.41696428571428  C 46.6944196428571 9.34006696428571  46.6352678571429 9.26908482142857  46.5702008928571 9.19810267857143  C 46.5465401785714 9.16852678571428  46.5228794642857 9.14486607142857  46.49921875 9.11529017857143  L 46.2566964285714 8.83727678571428  L 46.25078125 8.83136160714286  C 46.1620535714286 8.73080357142857  46.0674107142857 8.63024553571428  45.9786830357143 8.5296875  L 45.9727678571428 8.52377232142857  C 45.7834821428571 8.32265625  45.5941964285714 8.12154017857143  45.3989955357143 7.92633928571429  L 45.3930803571428 7.92042410714286  L 45.1091517857143 7.63649553571429  L 45.09140625 7.61875  C 45.0026785714286 7.53002232142857  44.9139508928571 7.44720982142857  44.8252232142857 7.36439732142857  C 44.7956473214286 7.33482142857143  44.7660714285714 7.30524553571428  44.7305803571428 7.27566964285714  C 44.6714285714286 7.21651785714286  44.6122767857143 7.16328125  44.553125 7.11004464285714  C 44.5353794642857 7.09229910714285  44.51171875 7.07455357142857  44.4939732142857 7.05089285714285  C 39.7736607142857 2.67366071428571  33.4503348214286 0  26.5 0  C 19.5496651785714 0  13.2263392857143 2.67366071428571  8.50011160714286 7.05089285714285  C 8.48236607142857 7.06863839285714  8.45870535714286 7.08638392857143  8.44095982142857 7.11004464285714  C 8.38180803571428 7.16328125  8.32265625 7.22243303571428  8.26350446428571 7.28158482142857  C 8.23392857142857 7.31116071428571  8.20435267857143 7.34073660714286  8.16886160714286 7.3703125  C 8.08013392857143 7.453125  7.99140625 7.54185267857143  7.90267857142857 7.62466517857143  L 7.88493303571429 7.64241071428571  L 7.60100446428571 7.92633928571429  L 7.59508928571428 7.93225446428571  C 7.39988839285714 8.12745535714286  7.21060267857143 8.32857142857143  7.02131696428571 8.5296875  L 7.01540178571429 8.53560267857143  C 6.92075892857143 8.63616071428571  6.83203125 8.73671875  6.74330357142857 8.83727678571428  L 6.73738839285714 8.84319196428571  C 6.65457589285714 8.93191964285714  6.57176339285714 9.0265625  6.49486607142857 9.12120535714285  C 6.47120535714286 9.15078125  6.44754464285714 9.17444196428571  6.42388392857143 9.20401785714285  C 6.35881696428572 9.275  6.29966517857143 9.35189732142857  6.23459821428572 9.42287946428571  C 6.22276785714286 9.440625  6.20502232142857 9.45245535714285  6.19319196428572 9.47020089285714  C 2.33058035714286 14.0722098214286  0 20.0110491071429  0 26.5  C 0 32.9889508928571  2.33058035714286 38.9277901785714  6.19910714285714 43.5357142857143  C 6.2109375 43.5534598214286  6.22868303571429 43.5712053571428  6.24051339285714 43.5889508928571  L 6.42388392857143 43.8078125  C 6.44754464285714 43.8373883928571  6.47120535714286 43.8610491071428  6.49486607142857 43.890625  L 6.73738839285714 44.1686383928571  C 6.73738839285714 44.1745535714286  6.74330357142857 44.1745535714286  6.74330357142857 44.18046875  C 6.83203125 44.2810267857143  6.92075892857143 44.3815848214286  7.01540178571428 44.4762276785714  L 7.02131696428571 44.4821428571429  C 7.21060267857143 44.6832589285714  7.39988839285714 44.884375  7.58917410714285 45.0795758928571  L 7.59508928571428 45.0854910714286  C 7.68973214285714 45.1801339285714  7.77845982142857 45.2747767857143  7.87310267857143 45.3635044642857  L 7.89084821428571 45.38125  C 8.08604910714285 45.5764508928571  8.28716517857142 45.7657366071429  8.48828125 45.9491071428571  C 13.2263392857143 50.3263392857143  19.5496651785714 53  26.5 53  C 33.4503348214286 53  39.7736607142857 50.3263392857143  44.4998883928571 45.9491071428571  C 44.70140846437 45.7644027059844  44.8986337206482 45.5750664599573  45.09140625 45.38125  L 45.1091517857143 45.3635044642857  C 45.2037946428571 45.2688616071429  45.2984375 45.1801339285714  45.3871651785714 45.0854910714286  L 45.3930803571429 45.0795758928571  C 45.58828125 44.884375  45.7775669642857 44.6832589285714  45.9609375 44.4821428571429  L 45.9668526785714 44.4762276785714  C 46.0555803571429 44.3756696428571  46.1502232142857 44.2810267857143  46.2389508928571 44.18046875  C 46.2389508928571 44.1745535714286  46.2448660714286 44.1745535714286  46.2448660714286 44.1686383928571  C 46.3276785714286 44.0799107142857  46.4104910714286 43.9852678571428  46.4873883928571 43.890625  C 46.5110491071429 43.8610491071428  46.5347098214286 43.8373883928571  46.5583705357143 43.8078125  Z M 48.6819196428571 28.15625  C 48.5044642857143 30.5755580357143  47.9366071428571 32.9238839285714  46.99609375 35.15390625  C 46.1797991071429 37.0822544642857  45.1032366071429 38.8686383928571  43.7900669642857 40.4893973214286  C 42.3111452015224 39.2112632897595  40.6941773769401 38.1022019229601  38.9691964285714 37.1828125  C 39.6553571428571 34.40859375  40.08125 31.3622767857143  40.1936383928571 28.15625  L 48.6819196428571 28.15625  Z M 43.7900669642857 12.5106026785714  C 46.6445578410766 16.0240681388312  48.3520436659714 20.3289145051016  48.6819196428571 24.84375  L 40.1936383928571 24.84375  C 40.08125 21.6377232142857  39.6553571428571 18.59140625  38.9691964285714 15.8171875  C 40.70234375 14.8944196428571  42.3171875 13.7823660714286  43.7900669642857 12.5106026785714  Z M 34.5032366071429 5.74363839285714  C 34.7220982142857 5.82645089285714  34.9409598214286 5.91517857142857  35.15390625 6.00390625  C 37.5022321428571 6.99765625  39.6376116071429 8.36997767857143  41.5186383928571 10.0972098214286  C 40.4259131049758 11.0276268451936  39.2497294520003 11.8553116380282  38.0050223214286 12.5697544642857  C 37.0763392857143 9.90792410714286  35.8873883928571 7.59508928571428  34.5032366071429 5.74363839285714  Z M 33.2847098214286 43.0033482142857  C 32.25546875 44.9198660714286  31.0487723214286 46.4518973214286  29.7947544642857 47.4456473214286  C 29.2505580357143 47.8715401785714  28.7063616071429 48.196875  28 48.4157366071428  L 28 37.4430803571428  C 30.5033402975177 37.6068308126186  32.8114465072387 38.1294961773091  35.0001116071429 38.9928571428571  C 34.5091517857143 40.4479910714286  33.9412946428571 41.7907366071428  33.2847098214286 43.0033482142857  Z M 29.7947544642857 5.56026785714286  C 31.0487723214286 6.54810267857143  32.25546875 8.08013392857143  33.2847098214286 9.99665178571428  C 33.9353794642857 11.2151785714286  34.5091517857143 12.5579241071429  35.0001116071429 14.0071428571429  C 32.8114465072387 14.8705038226909  30.5033402975177 15.3931691873814  28 15.5569196428571  L 28 4.59017857142857  C 28.7004464285714 4.80904017857143  29.2505580357143 5.12845982142857  29.7947544642857 5.56026785714286  Z M 35.89921875 35.7868303571428  C 33.4168159462518 34.8454849294738  30.8062912986365 34.2850896460667  28.15625 34.1246651785714  L 28.15625 28.15625  L 36.8811383928571 28.15625  C 36.7864955357143 30.7707589285714  36.4611607142857 33.3083705357143  35.9169642857143 35.7158482142857  L 35.89921875 35.7868303571428  Z M 36.8811383928571 24.84375  L 28.15625 24.84375  L 28.15625 18.8753348214286  C 30.8654017857143 18.7097098214286  33.4680803571429 18.1359375  35.89921875 17.2131696428571  L 35.9169642857143 17.2841517857143  C 36.4611607142857 19.6916294642857  36.7864955357143 22.2233258928571  36.8811383928571 24.84375  Z M 16.1188616071429 28.15625  L 24.84375 28.15625  L 24.84375 34.1246651785714  C 22.1345982142857 34.2902901785714  19.5319196428571 34.8640625  17.10078125 35.7868303571428  L 17.0830357142857 35.7158482142857  C 16.5388392857143 33.3083705357143  16.2135044642857 30.7766741071428  16.1188616071429 28.15625  Z M 24.84375 24.84375  L 16.1188616071429 24.84375  C 16.2135044642857 22.2292410714286  16.5388392857143 19.6916294642857  17.0830357142857 17.2841517857143  L 17.10078125 17.2131696428571  C 19.5319196428571 18.1359375  22.1286830357143 18.7097098214286  24.84375 18.8753348214286  L 24.84375 24.84375  Z M 17.9939732142857 38.9869419642857  C 20.1944196428571 38.1233258928571  22.48359375 37.6087053571429  25 37.4430803571428  L 25 48.4098214285714  C 24.2995535714286 48.1909598214286  23.7494419642857 47.8715401785714  23.2052455357143 47.4397321428571  C 21.9512276785714 46.4518973214286  20.7386160714286 44.9139508928571  19.709375 42.9974330357143  C 19.0587053571429 41.77890625  18.4849330357143 40.4361607142857  17.9939732142857 38.9869419642857  Z M 25 15.5569196428571  L 24.84375 15.5569196428571  C 22.4966597024823 15.3931691873814  20.1885534927613 14.8705038226909  17.9998883928571 14.0071428571429  C 18.4908482142857 12.5520089285714  19.0587053571429 11.2092633928571  19.7152901785714 9.99665178571428  C 20.74453125 8.08013392857143  21.9512276785714 6.5421875  23.2111607142857 5.55435267857143  C 23.7553571428571 5.12845982142857  24.2995535714286 4.803125  25 4.58426339285714  L 25 15.5569196428571  Z M 11.4813616071429 10.0972098214286  C 13.3623883928571 8.36997767857143  15.4977678571429 6.99765625  17.84609375 6.00390625  C 18.0649553571429 5.91517857142857  18.2779017857143 5.82645089285714  18.4967633928571 5.74363839285714  C 17.1126116071429 7.59508928571428  15.9236607142857 9.90792410714286  14.9949776785714 12.5697544642857  C 13.7527901785714 11.8599330357143  12.5756696428571 11.0318080357143  11.4813616071429 10.0972098214286  Z M 4.31808035714286 24.84375  C 4.49553571428571 22.4244419642857  5.06339285714286 20.0761160714286  6.00390625 17.84609375  C 6.82020089285714 15.9177455357143  7.89676339285714 14.1313616071429  9.20993303571428 12.5106026785714  C 10.6828125 13.7823660714286  12.29765625 14.8944196428571  14.0308035714286 15.8171875  C 13.3446428571429 18.59140625  12.91875 21.6377232142857  12.8063616071429 24.84375  L 4.31808035714286 24.84375  Z M 9.20993303571429 40.4893973214286  C 6.35544215892339 36.9759318611688  4.64795633402861 32.6710854948984  4.31808035714286 28.15625  L 12.8063616071429 28.15625  C 12.91875 31.3622767857143  13.3446428571429 34.40859375  14.0308035714286 37.1828125  C 12.3058226230599 38.1022019229601  10.6888547984777 39.2112632897595  9.20993303571429 40.4893973214286  Z M 18.4967633928571 47.2563616071428  C 18.2779017857143 47.1735491071428  18.0590401785714 47.0848214285714  17.84609375 46.99609375  C 15.4977678571429 46.00234375  13.3623883928571 44.6300223214286  11.4813616071429 42.9027901785714  C 12.5756696428571 41.9681919642857  13.7527901785714 41.1459821428571  14.9949776785714 40.4302455357143  C 15.9236607142857 43.0920758928571  17.1126116071429 45.4049107142857  18.4967633928571 47.2563616071428  Z M 41.5186383928571 42.9027901785714  C 39.648037242904 44.6228248798668  37.4949352634244 46.0075335878593  35.15390625 46.99609375  C 34.9350446428571 47.0848214285714  34.7220982142857 47.1735491071428  34.5032366071429 47.2563616071428  C 35.8873883928571 45.4049107142857  37.0763392857143 43.0920758928571  38.0050223214286 40.4302455357143  C 39.2472098214286 41.1400669642857  40.4243303571429 41.9681919642857  41.5186383928571 42.9027901785714  Z " fill-rule="nonzero" fill="#333333" stroke="none" transform="matrix(1 0 0 1 119 3300 )" />
  </g>
</svg>