<?xml version="1.0" encoding="utf-8"?>
<svg version="1.1" xmlns:xlink="http://www.w3.org/1999/xlink" width="63px" height="60px" xmlns="http://www.w3.org/2000/svg">
  <g transform="matrix(1 0 0 1 -204 -3540 )">
    <path d="M 51.1875 0.220588235294118  L 51.1875 5  L 63 5  L 63 59  L 0 59  L 0 5  L 11.8125 5  L 11.8125 0.220588235294118  L 15.75 0.220588235294118  L 15.75 5  L 47.25 5  L 47.25 0.220588235294118  L 51.1875 0.220588235294118  Z M 11.8125 12.1323529411765  L 11.8125 8.16176470588235  L 3.9375 8.16176470588235  L 3.9375 17  L 59.0625 17  L 59.0625 8.16176470588235  L 51.1875 8.16176470588235  L 51.1875 12.1323529411765  L 47.25 12.1323529411765  L 47.25 9  L 15.75 9  L 15.75 12.1323529411765  L 11.8125 12.1323529411765  Z M 4 20  L 4 55  L 59 55  L 59 20  L 4 20  Z M 15.75 35.9558823529412  L 11.8125 35.9558823529412  L 11.8125 31.9852941176471  L 15.75 31.9852941176471  L 15.75 35.9558823529412  Z M 15.75 43.8970588235294  L 11.8125 43.8970588235294  L 11.8125 39.9264705882353  L 15.75 39.9264705882353  L 15.75 43.8970588235294  Z M 15.75 51.8382352941177  L 11.8125 51.8382352941177  L 11.8125 47.8676470588235  L 15.75 47.8676470588235  L 15.75 51.8382352941177  Z M 27.5625 28.0147058823529  L 23.625 28.0147058823529  L 23.625 24.0441176470588  L 27.5625 24.0441176470588  L 27.5625 28.0147058823529  Z M 27.5625 35.9558823529412  L 23.625 35.9558823529412  L 23.625 31.9852941176471  L 27.5625 31.9852941176471  L 27.5625 35.9558823529412  Z M 27.5625 43.8970588235294  L 23.625 43.8970588235294  L 23.625 39.9264705882353  L 27.5625 39.9264705882353  L 27.5625 43.8970588235294  Z M 27.5625 51.8382352941177  L 23.625 51.8382352941177  L 23.625 47.8676470588235  L 27.5625 47.8676470588235  L 27.5625 51.8382352941177  Z M 39.375 28.0147058823529  L 35.4375 28.0147058823529  L 35.4375 24.0441176470588  L 39.375 24.0441176470588  L 39.375 28.0147058823529  Z M 39.375 35.9558823529412  L 35.4375 35.9558823529412  L 35.4375 31.9852941176471  L 39.375 31.9852941176471  L 39.375 35.9558823529412  Z M 39.375 43.8970588235294  L 35.4375 43.8970588235294  L 35.4375 39.9264705882353  L 39.375 39.9264705882353  L 39.375 43.8970588235294  Z M 39.375 51.8382352941177  L 35.4375 51.8382352941177  L 35.4375 47.8676470588235  L 39.375 47.8676470588235  L 39.375 51.8382352941177  Z M 51.1875 28.0147058823529  L 47.25 28.0147058823529  L 47.25 24.0441176470588  L 51.1875 24.0441176470588  L 51.1875 28.0147058823529  Z M 51.1875 35.9558823529412  L 47.25 35.9558823529412  L 47.25 31.9852941176471  L 51.1875 31.9852941176471  L 51.1875 35.9558823529412  Z M 51.1875 43.8970588235294  L 47.25 43.8970588235294  L 47.25 39.9264705882353  L 51.1875 39.9264705882353  L 51.1875 43.8970588235294  Z " fill-rule="nonzero" fill="#333333" stroke="none" transform="matrix(1 0 0 1 204 3540 )" />
  </g>
</svg>