<?xml version="1.0" encoding="utf-8"?>
<svg version="1.1" xmlns:xlink="http://www.w3.org/1999/xlink" width="50px" height="51px" xmlns="http://www.w3.org/2000/svg">
  <g transform="matrix(1 0 0 1 -118 -4747 )">
    <path d="M 50 25.25  C 50 11.44296875  38.80703125 0.25  25 0.25  C 11.19296875 0.25  0 11.44296875  0 25.25  C 0 39.05703125  11.19296875 50.25  25 50.25  C 38.80703125 50.25  50 39.05703125  50 25.25  Z M 43.75 25.25  C 43.75 35.60546875  35.35546875 44  25 44  C 14.64453125 44  6.25 35.60546875  6.25 25.25  C 6.25 14.89453125  14.64453125 6.5  25 6.5  C 35.35546875 6.5  43.75 14.89453125  43.75 25.25  Z " fill-rule="nonzero" fill="#000000" stroke="none" transform="matrix(1 0 0 1 118 4747 )" />
  </g>
</svg>