<?xml version="1.0" encoding="utf-8"?>
<svg version="1.1" xmlns:xlink="http://www.w3.org/1999/xlink" width="27px" height="37px" xmlns="http://www.w3.org/2000/svg">
  <g transform="matrix(1 0 0 1 -514 -4753 )">
    <path d="M 26.5530671859786 10.6766169154229  C 27.0262901655307 11.2376214167259  27.1051606621227 11.8336886993603  26.7896786757546 12.4648187633262  C 26.4741966893866 13.1134802179578  25.9659201557936 13.4378109452736  25.2648490749757 13.4378109452736  L 20 13.4378109452736  L 20 36.1584932480455  C 20.2171372930867 36.4039327173655  20.1382667964946 36.6055437100213  19.9805258033106 36.7633262260128  C 19.8227848101266 36.9211087420043  19.6212268743914 37  19.3758519961052 37  L 0.867575462512171 37  C 0.499513145082765 37  0.245374878286271 36.8422174840085  0.105160662122687 36.5266524520256  C -0.0350535540408958 36.1760246387112  0 35.8692253020611  0.210321324245375 35.6062544420753  L 4.41674780915287 30.5572139303483  C 4.5744888023369 30.3643686330254  4.7935735150925 30.2679459843639  5.07400194741967 30.2679459843639  L 13 30.2679459843639  L 13 13.4378109452736  L 8.43914313534567 13.4378109452736  C 7.73807205452775 13.4378109452736  7.22979552093476 13.1134802179578  6.9143135345667 12.4648187633262  C 6.61635832521908 11.8161573086946  6.6952288218111 11.2200900260602  7.15092502434275 10.6766169154229  L 15.5637779941577 0.578535891968729  C 15.8792599805258 0.192845297322905  16.3086660175268 0  16.8519961051607 0  C 17.3953261927945 0  17.8247322297955 0.192845297322905  18.1402142161636 0.578535891968729  L 26.5530671859786 10.6766169154229  Z " fill-rule="nonzero" fill="#000000" stroke="none" transform="matrix(1 0 0 1 514 4753 )" />
  </g>
</svg>