<?xml version="1.0" encoding="utf-8"?>
<svg version="1.1" xmlns:xlink="http://www.w3.org/1999/xlink" width="96px" height="94px" xmlns="http://www.w3.org/2000/svg">
  <defs>
    <mask fill="white" id="clip70">
      <path d="M 35 0  L 0 37.5  C 61 93.5  61 93.5  61 93.5  L 95.5 54.5  L 35 0  Z " fill-rule="evenodd" />
    </mask>
  </defs>
  <g transform="matrix(1 0 0 1 -203 -253 )">
    <path d="M 35 0  L 0 37.5  C 61 93.5  61 93.5  61 93.5  L 95.5 54.5  L 35 0  Z " fill-rule="nonzero" fill="#f4f3f0" stroke="none" transform="matrix(1 0 0 1 203 253 )" />
    <path d="M 35 0  L 0 37.5  C 61 93.5  61 93.5  61 93.5  L 95.5 54.5  L 35 0  Z " stroke-width="2" stroke="#797979" fill="none" transform="matrix(1 0 0 1 203 253 )" mask="url(#clip70)" />
  </g>
</svg>