<?xml version="1.0" encoding="utf-8"?>
<svg version="1.1" xmlns:xlink="http://www.w3.org/1999/xlink" width="104px" height="103px" xmlns="http://www.w3.org/2000/svg">
  <defs>
    <mask fill="white" id="clip80">
      <path d="M 40.6956521739131 0  L 19.0917874396135 24  L 39.1884057971014 44.5  C 39.1884057971014 44.5  41.3859560299584 41.7133914333396  43.7101449275362 42  C 46.348568769829 42.3253586128349  47.8092252815618 43.5852773628243  48 46  C 48.229162524962 48.9006146157539  45.1102501552006 49.7029702973334  43.665375232801 51.5544554460001  C 42.1730520875678 52.5363036306667  39.1884057971014 54.5  39.1884057971014 54.5  L 13.5652173913043 29.5  L 0 44.5  L 62.2995169082125 103  L 104 58.5  L 40.6956521739131 0  Z " fill-rule="evenodd" />
    </mask>
  </defs>
  <g transform="matrix(1 0 0 1 -49 -279 )">
    <path d="M 40.6956521739131 0  L 19.0917874396135 24  L 39.1884057971014 44.5  C 39.1884057971014 44.5  41.3859560299584 41.7133914333396  43.7101449275362 42  C 46.348568769829 42.3253586128349  47.8092252815618 43.5852773628243  48 46  C 48.229162524962 48.9006146157539  45.1102501552006 49.7029702973334  43.665375232801 51.5544554460001  C 42.1730520875678 52.5363036306667  39.1884057971014 54.5  39.1884057971014 54.5  L 13.5652173913043 29.5  L 0 44.5  L 62.2995169082125 103  L 104 58.5  L 40.6956521739131 0  Z " fill-rule="nonzero" fill="#f4f3f0" stroke="none" transform="matrix(1 0 0 1 49 279 )" />
    <path d="M 40.6956521739131 0  L 19.0917874396135 24  L 39.1884057971014 44.5  C 39.1884057971014 44.5  41.3859560299584 41.7133914333396  43.7101449275362 42  C 46.348568769829 42.3253586128349  47.8092252815618 43.5852773628243  48 46  C 48.229162524962 48.9006146157539  45.1102501552006 49.7029702973334  43.665375232801 51.5544554460001  C 42.1730520875678 52.5363036306667  39.1884057971014 54.5  39.1884057971014 54.5  L 13.5652173913043 29.5  L 0 44.5  L 62.2995169082125 103  L 104 58.5  L 40.6956521739131 0  Z " stroke-width="2" stroke="#797979" fill="none" transform="matrix(1 0 0 1 49 279 )" mask="url(#clip80)" />
  </g>
</svg>