<?xml version="1.0" encoding="utf-8"?>
<svg version="1.1" xmlns:xlink="http://www.w3.org/1999/xlink" width="7px" height="6px" xmlns="http://www.w3.org/2000/svg">
  <defs>
    <mask fill="white" id="clip30">
      <path d="M 0.5 4.5  C 0.5 4.5  5.52783200615553 6.10648000683949  6 4.5  C 6.55713976432111 2.60441642791243  2 0  2 0  C 2 0  0.833333333333343 1.16666666666666  0.5 2  C 0.5 3.33333333333334  0.5 4.5  0.5 4.5  Z " fill-rule="evenodd" />
    </mask>
  </defs>
  <g transform="matrix(1 0 0 1 -87 -37 )">
    <path d="M 0.5 4.5  C 0.5 4.5  5.52783200615553 6.10648000683949  6 4.5  C 6.55713976432111 2.60441642791243  2 0  2 0  C 2 0  0.833333333333343 1.16666666666666  0.5 2  C 0.5 3.33333333333334  0.5 4.5  0.5 4.5  Z " fill-rule="nonzero" fill="#f4f3f0" stroke="none" transform="matrix(1 0 0 1 87 37 )" />
    <path d="M 0.5 4.5  C 0.5 4.5  5.52783200615553 6.10648000683949  6 4.5  C 6.55713976432111 2.60441642791243  2 0  2 0  C 2 0  0.833333333333343 1.16666666666666  0.5 2  C 0.5 3.33333333333334  0.5 4.5  0.5 4.5  Z " stroke-width="2" stroke="#797979" fill="none" transform="matrix(1 0 0 1 87 37 )" mask="url(#clip30)" />
  </g>
</svg>