<?xml version="1.0" encoding="utf-8"?>
<svg version="1.1" xmlns:xlink="http://www.w3.org/1999/xlink" width="74px" height="64px" xmlns="http://www.w3.org/2000/svg">
  <defs>
    <mask fill="white" id="clip43">
      <path d="M 28.8904109589041 64  L 0 36.7874015748031  L 34.4657534246575 0  L 74 35.2755905511811  C 74 35.2755905511811  69.6669387299041 35.7608327581559  67.5004080948562 36.0034538616434  C 65.1669387299041 36.26476976603  62.8334693649521 36.5260856704166  60.5 36.7874015748031  C 56.7214611872146 38.4671916010498  52.9429223744293 40.1469816272966  49.1643835616438 41.8267716535433  C 47.7237508232859 43.1449898087175  46.283118084928 44.4632079638918  44.8424853465701 45.7814261190661  C 42.3949902310468 48.020950746044  39.9474951155233 50.260475373022  37.5 52.5  C 36.361324376903 54.0209517670485  35.2226487538059 55.5419035340969  34.0839731307089 57.0628553011454  C 32.3527857401073 59.3752368674303  28.8904109589041 64  28.8904109589041 64  Z " fill-rule="evenodd" />
    </mask>
  </defs>
  <g transform="matrix(1 0 0 1 -357 -215 )">
    <path d="M 28.8904109589041 64  L 0 36.7874015748031  L 34.4657534246575 0  L 74 35.2755905511811  C 74 35.2755905511811  69.6669387299041 35.7608327581559  67.5004080948562 36.0034538616434  C 65.1669387299041 36.26476976603  62.8334693649521 36.5260856704166  60.5 36.7874015748031  C 56.7214611872146 38.4671916010498  52.9429223744293 40.1469816272966  49.1643835616438 41.8267716535433  C 47.7237508232859 43.1449898087175  46.283118084928 44.4632079638918  44.8424853465701 45.7814261190661  C 42.3949902310468 48.020950746044  39.9474951155233 50.260475373022  37.5 52.5  C 36.361324376903 54.0209517670485  35.2226487538059 55.5419035340969  34.0839731307089 57.0628553011454  C 32.3527857401073 59.3752368674303  28.8904109589041 64  28.8904109589041 64  Z " fill-rule="nonzero" fill="#f4f3f0" stroke="none" transform="matrix(1 0 0 1 357 215 )" />
    <path d="M 28.8904109589041 64  L 0 36.7874015748031  L 34.4657534246575 0  L 74 35.2755905511811  C 74 35.2755905511811  69.6669387299041 35.7608327581559  67.5004080948562 36.0034538616434  C 65.1669387299041 36.26476976603  62.8334693649521 36.5260856704166  60.5 36.7874015748031  C 56.7214611872146 38.4671916010498  52.9429223744293 40.1469816272966  49.1643835616438 41.8267716535433  C 47.7237508232859 43.1449898087175  46.283118084928 44.4632079638918  44.8424853465701 45.7814261190661  C 42.3949902310468 48.020950746044  39.9474951155233 50.260475373022  37.5 52.5  C 36.361324376903 54.0209517670485  35.2226487538059 55.5419035340969  34.0839731307089 57.0628553011454  C 32.3527857401073 59.3752368674303  28.8904109589041 64  28.8904109589041 64  Z " stroke-width="2" stroke="#797979" fill="none" transform="matrix(1 0 0 1 357 215 )" mask="url(#clip43)" />
  </g>
</svg>