<?xml version="1.0" encoding="utf-8"?>
<svg version="1.1" xmlns:xlink="http://www.w3.org/1999/xlink" width="66px" height="61px" xmlns="http://www.w3.org/2000/svg">
  <defs>
    <mask fill="white" id="clip44">
      <path d="M 46.3511450381679 0.531719504750981  C 51.15436018473 5.77261085703071  66 17.9586634092527  66 17.9586634092527  L 36.3523194362889 61  L 0 26.8664921685636  C 0 26.8664921685636  4.51068623968195 19.9751989712186  11.9541491252714 13.2470823010229  C 14.6604581341101 10.8008602889109  17.7544563415164 8.37620888536333  21.1603053435115 6.31218409646226  C 24.0068432806734 4.58711499874011  27.3302645788252 3.23653522623312  30.6144847810198 2.23512912402066  C 38.104472682581 -0.0486762021597542  45.3905705940311 -0.516383930944698  46.3511450381679 0.531719504750981  Z " fill-rule="evenodd" />
    </mask>
  </defs>
  <g transform="matrix(1 0 0 1 -391 -256 )">
    <path d="M 46.3511450381679 0.531719504750981  C 51.15436018473 5.77261085703071  66 17.9586634092527  66 17.9586634092527  L 36.3523194362889 61  L 0 26.8664921685636  C 0 26.8664921685636  4.51068623968195 19.9751989712186  11.9541491252714 13.2470823010229  C 14.6604581341101 10.8008602889109  17.7544563415164 8.37620888536333  21.1603053435115 6.31218409646226  C 24.0068432806734 4.58711499874011  27.3302645788252 3.23653522623312  30.6144847810198 2.23512912402066  C 38.104472682581 -0.0486762021597542  45.3905705940311 -0.516383930944698  46.3511450381679 0.531719504750981  Z " fill-rule="nonzero" fill="#f4f3f0" stroke="none" transform="matrix(1 0 0 1 391 256 )" />
    <path d="M 46.3511450381679 0.531719504750981  C 51.15436018473 5.77261085703071  66 17.9586634092527  66 17.9586634092527  L 36.3523194362889 61  L 0 26.8664921685636  C 0 26.8664921685636  4.51068623968195 19.9751989712186  11.9541491252714 13.2470823010229  C 14.6604581341101 10.8008602889109  17.7544563415164 8.37620888536333  21.1603053435115 6.31218409646226  C 24.0068432806734 4.58711499874011  27.3302645788252 3.23653522623312  30.6144847810198 2.23512912402066  C 38.104472682581 -0.0486762021597542  45.3905705940311 -0.516383930944698  46.3511450381679 0.531719504750981  Z " stroke-width="2" stroke="#797979" fill="none" transform="matrix(1 0 0 1 391 256 )" mask="url(#clip44)" />
  </g>
</svg>