<?xml version="1.0" encoding="utf-8"?>
<svg version="1.1" xmlns:xlink="http://www.w3.org/1999/xlink" width="57px" height="55px" xmlns="http://www.w3.org/2000/svg">
  <defs>
    <mask fill="white" id="clip182">
      <path d="M 27.5 9.5  L 16 0  L 0.5 18.5  L 39.5 54.5  L 56.5 33.5  L 39.5 26.5  L 27.5 9.5  Z " fill-rule="evenodd" />
    </mask>
  </defs>
  <g transform="matrix(1 0 0 1 -285 -90 )">
    <path d="M 27.5 9.5  L 16 0  L 0.5 18.5  L 39.5 54.5  L 56.5 33.5  L 39.5 26.5  L 27.5 9.5  Z " fill-rule="nonzero" fill="#f4f3f0" stroke="none" transform="matrix(1 0 0 1 285 90 )" />
    <path d="M 27.5 9.5  L 16 0  L 0.5 18.5  L 39.5 54.5  L 56.5 33.5  L 39.5 26.5  L 27.5 9.5  Z " stroke-width="2" stroke="#797979" fill="none" transform="matrix(1 0 0 1 285 90 )" mask="url(#clip182)" />
  </g>
</svg>