<?xml version="1.0" encoding="utf-8"?>
<svg version="1.1" xmlns:xlink="http://www.w3.org/1999/xlink" width="77px" height="77px" xmlns="http://www.w3.org/2000/svg">
  <defs>
    <mask fill="white" id="clip58">
      <path d="M 30.5 0.5  L 77 44.5  L 46 76.5  L 29 60  L 36 53  L 34.5 48  L 30.5 48  L 24 56  L 0.5 33  L 30.5 0.5  Z " fill-rule="evenodd" />
    </mask>
  </defs>
  <g transform="matrix(1 0 0 1 133 -186 )">
    <path d="M 30.5 0.5  L 77 44.5  L 46 76.5  L 29 60  L 36 53  L 34.5 48  L 30.5 48  L 24 56  L 0.5 33  L 30.5 0.5  Z " fill-rule="nonzero" fill="#f4f3f0" stroke="none" transform="matrix(1 0 0 1 -133 186 )" />
    <path d="M 30.5 0.5  L 77 44.5  L 46 76.5  L 29 60  L 36 53  L 34.5 48  L 30.5 48  L 24 56  L 0.5 33  L 30.5 0.5  Z " stroke-width="2" stroke="#797979" fill="none" transform="matrix(1 0 0 1 -133 186 )" mask="url(#clip58)" />
  </g>
</svg>