<?xml version="1.0" encoding="utf-8"?>
<svg version="1.1" xmlns:xlink="http://www.w3.org/1999/xlink" width="53px" height="42px" xmlns="http://www.w3.org/2000/svg">
  <g transform="matrix(1 0 0 1 -107 -992 )">
    <path d="M 45.3816604708798 23.9953234606391  C 45.4035522511359 24.0389711613406  45.4144981412639 24.1044427123928  45 24.1917381137958  L 45 39.9049103663289  C 45.4144981412639 40.4723304754482  45.2065262288311 40.9633671083398  44.7905824039653 41.3780202650039  C 44.3746385790996 41.792673421668  43.8820735233375 42  43.3128872366791 42  L 30 42  L 30 29.4294621979735  L 23 29.4294621979735  L 23 42  L 9.68711276332094 42  C 9.11792647666254 42  8.62536142090046 41.792673421668  8.2094175960347 41.3780202650039  C 7.79347377116894 40.9633671083398  7.58550185873606 40.4723304754482  8 39.9049103663289  L 8 24.1917381137958  C 7.58550185873606 24.169914263445  7.59097480380008 24.1371784879189  7.60192069392813 24.0935307872175  C 7.61286658405618 24.049883086516  7.6183395291202 24.0171473109899  7.6183395291202 23.9953234606391  L 26.5 8.47856586126266  L 45.3816604708798 23.9953234606391  Z M 52.9671623296159 21.1636788776306  C 52.989054109872 21.4583008573656  52.9124328789756 21.7147310989868  52.7372986369269 21.9329696024942  L 50.7013630731103 24.3554169914263  C 50.5262288310616 24.551831644583  50.2963651383726 24.6718628215121  50.0117719950434 24.7155105222136  L 49.913258983891 24.7155105222136  C 49.6286658405618 24.7155105222136  49.3988021478728 24.639127045986  49.223667905824 24.4863600935308  L 26.5 5.59781761496493  L 3.77633209417596 24.4863600935308  C 3.51363073110285 24.6609508963367  3.25092936802974 24.7373343725643  2.98822800495663 24.7155105222136  C 2.70363486162743 24.6718628215121  2.47377116893846 24.551831644583  2.29863692688971 24.3554169914263  L 0.26270136307311 21.9329696024942  C 0.0875671210243701 21.7147310989868  0.0109458901280463 21.4583008573656  0.0328376703841388 21.1636788776306  C 0.0547294506402315 20.8690568978956  0.17513424204874 20.6344505066251  0.394052044609665 20.4598597038192  L 24.0043370508055 0.851130163678879  C 24.7048740190004 0.283710054559622  25.5367616687319 0  26.5 0  C 27.4632383312681 0  28.2951259809996 0.283710054559622  28.9956629491945 0.851130163678879  L 37.0080545229244 7.52922837100545  L 37.0080545229244 1.14575214341387  C 37.0080545229244 0.840218238503503  37.1065675340768 0.589243959469991  37.3035935563817 0.39282930631333  C 37.5006195786865 0.196414653156665  37.7523750516316 0.0982073265783325  38.0588599752169 0.0982073265783325  L 44.3636926889715 0.0982073265783325  C 44.6701776125568 0.0982073265783325  44.9219330855019 0.196414653156665  45.1189591078067 0.39282930631333  C 45.3159851301115 0.589243959469991  45.4144981412639 0.840218238503503  45 1.14575214341387  L 45 14.501948558067  L 52.6059479553903 20.4598597038192  C 52.8248657579513 20.6344505066251  52.9452705493598 20.8690568978956  52.9671623296159 21.1636788776306  Z " fill-rule="nonzero" fill="#555555" stroke="none" transform="matrix(1 0 0 1 107 992 )" />
  </g>
</svg>